<?xml version="1.0" encoding="utf-8"?>
<!-- Generator: Adobe Illustrator 19.1.0, SVG Export Plug-In . SVG Version: 6.00 Build 0)  -->
<svg version="1.1" id="Layer_1" xmlns="http://www.w3.org/2000/svg" xmlns:xlink="http://www.w3.org/1999/xlink" x="0px" y="0px"
	 viewBox="-581 359 84 84" style="enable-background:new -581 359 84 84;" xml:space="preserve">
<style type="text/css">
	.st0{fill:#FFFFFF;}
</style>
<path class="st0" d="M-539,359c-23.2,0-42,18.9-42,42c0,23.2,18.8,42,42,42s42-18.8,42-42C-497,377.9-515.8,359-539,359L-539,359z
	 M-544.7,421.6c-0.1,0.7-0.7,1.3-1.3,1.3c-0.4,0-0.7-0.2-0.9-0.4l-12.4-12.4c-0.1,0-0.1,0.1-0.1,0.1h-9.2c-1.8,0-3.3-1.5-3.3-3.4
	v-11.8c0-1.9,1.5-3.3,3.3-3.3h9.2h0.1l12.4-12.4c0.4-0.4,0.9-0.5,1.4-0.3c0.6,0.2,0.8,0.7,0.8,1.2V421.6z"/>
</svg>
