<?xml version="1.0" encoding="utf-8"?>
<!-- Generator: Adobe Illustrator 19.1.0, SVG Export Plug-In . SVG Version: 6.00 Build 0)  -->
<svg version="1.1" id="Layer_1" xmlns="http://www.w3.org/2000/svg" xmlns:xlink="http://www.w3.org/1999/xlink" x="0px" y="0px"
	 viewBox="-597 255.7 84 84" style="enable-background:new -597 255.7 84 84;" xml:space="preserve">
<style type="text/css">
	.st0{fill:#FFFFFF;}
</style>
<path class="st0" d="M-555,255.7c-23.2,0-42,18.9-42,42c0,23.2,18.8,42,42,42s42-18.8,42-42C-513,274.5-531.8,255.7-555,255.7
	L-555,255.7z M-560.7,318.3c-0.1,0.7-0.7,1.3-1.3,1.3c-0.4,0-0.7-0.1-0.9-0.4l-12.4-12.3h-0.1h-9.2c-1.8,0-3.3-1.5-3.3-3.3v-11.9
	c0-1.9,1.5-3.3,3.3-3.3h9.2h0.1l12.4-12.3c0.4-0.4,0.9-0.6,1.4-0.3c0.6,0.2,0.8,0.7,0.8,1.2V318.3z M-557.3,303.7
	c3.4-3.4,3.4-8.8,0-12.1l4.1-4c5.5,5.5,5.5,14.7,0,20.2L-557.3,303.7z M-549.3,311.9c7.7-7.7,7.7-20.4,0-28.3l4-4
	c10,10,10,26.3,0,36.3L-549.3,311.9z M-541.2,319.9c12.3-12.2,12.3-32.2,0-44.4l4-4c14.5,14.5,14.5,38.1,0,52.5L-541.2,319.9z"/>
</svg>
